<svg width="262" height="68" viewBox="0 0 262 68" fill="none" xmlns="http://www.w3.org/2000/svg">
<circle cx="48.5" cy="27.5" r="24.5" fill="#FFCC01"/>
<path d="M70 47C61.2 44.6 44.8333 43.8733 37 44.04C42.3333 45.54 59.7015 49 63 49C67.5 49 69.5 51 75 51.5C79.4 51.9 95.5 46.8733 100.5 44.04C94.5 45.8733 78.8 49.4 70 47Z" fill="#003883"/>
<circle cx="44" cy="34" r="33" stroke="#013B84" stroke-width="2"/>
<path d="M23.5 24.3007C22.4723 23.4198 20.4617 21.8405 19.7239 21.7502C19.5219 21.8325 19.4381 21.8626 19.5 21.8007C19.5476 21.753 19.6241 21.738 19.7239 21.7502C21.1528 21.1683 28.4954 17.9773 32 26.3007C36.5 26.3007 43.5 30.5007 41.5 39.3007C40.1667 36.4673 37 30.9007 35 31.3007C37.3333 34.4673 41.3 41.4007 38.5 43.8007C37 41.8007 33.7 37.8007 32.5 37.8007C31.3 37.8007 30.6667 40.134 30.5 41.3007L32.5 54.8007C42.1667 55.9673 59.5 52.6007 59.5 51.8007C59.5 51.0007 57.1667 37.134 56 30.3007L54.5 32.8007C53.8333 30.134 52.5 24.5007 52.5 23.3007C52.5 22.1007 51.5 23.8007 51 24.8007L50.5 23.3007C49.8916 24.0612 48.8111 25.6825 48.9311 26.5681C49.0839 26.9304 49.1351 27.0708 49 26.8007C48.9651 26.7308 48.9426 26.6528 48.9311 26.5681C48.6316 25.8576 47.9415 24.2941 47.5 23.3007C46.1667 26.634 43.7 33.5007 44.5 34.3007C45.5 35.3007 34 31.8007 46.5 18.3007C44.8333 16.8007 41 15.1007 39 20.3007C39.3333 18.134 40.8 13.2007 44 10.8007C42.1863 10.045 38.5634 8.93289 37.3076 9.92547C37.2005 10.0517 37.0979 10.177 37 10.3007C37.0745 10.1516 37.1786 10.0274 37.3076 9.92547C40.6623 5.96884 48.4103 0.997521 55 10.3007L55.5 11.3007C55.5 10.9673 55.6 10.1007 56 9.30066C56.5 8.30066 57 9.80066 57.5 10.3007C58 10.8007 69.5 9.80066 71 21.8007C68.6667 19.4673 63.3 15.0007 60.5 15.8007C65 18.8007 72.7 26.0007 67.5 30.8007C65 27.8007 59.8 22.4007 59 24.8007C58.2 27.2007 61.3333 43.134 63 50.8007C67.5 51.634 77.5 52.4007 81.5 48.8007C86.5 44.3007 79 53.8007 76.5 54.8007C74.5 55.6007 67.6667 56.134 64.5 56.3007C58.3333 58.8007 43.2 63.1007 32 60.3007C20.8 57.5007 4.83333 56.6667 5 56.5L0 55.8007H27.5L28 41.3007C27.6667 41.4673 27 42.1007 27 43.3007C27 44.5007 26.6667 38.134 26.5 34.8007C23.5 36.134 17.3 39.7007 16.5 43.3007C15.5 47.8007 11.5 36.3007 23 30.3007C24 30.3007 19 28.3007 17.5 30.8007C16 33.3007 17.2506 25.8007 23.5 24.3007Z" fill="#003883"/>
<path d="M100.773 23.1719C100.75 22.9844 100.703 22.8203 100.633 22.6797C100.586 22.5156 100.527 22.3398 100.457 22.1523C100.34 21.8711 100.234 21.5664 100.141 21.2383C100.047 20.9102 100 20.5234 100 20.0781C100.047 19.8438 100.105 19.6797 100.176 19.5859C100.246 19.4688 100.316 19.375 100.387 19.3047L100.527 18.6719H101.055C101.242 18.6953 101.43 18.707 101.617 18.707C101.828 18.707 102.027 18.707 102.215 18.707C103.105 18.707 104.02 18.6719 104.957 18.6016C105.895 18.5312 106.855 18.4492 107.84 18.3555C108.918 18.2148 110.078 18.1094 111.32 18.0391C111.438 17.7812 111.508 17.6172 111.531 17.5469C111.578 17.4766 111.625 17.3945 111.672 17.3008L112.059 17.0898C112.598 17.0664 112.973 17.1367 113.184 17.3008C113.395 17.4414 113.559 17.582 113.676 17.7227C114.285 17.6758 114.906 17.6172 115.539 17.5469C116.172 17.4531 116.828 17.3594 117.508 17.2656C118.445 17.1484 119.395 17.0312 120.355 16.9141C121.316 16.7969 122.254 16.7383 123.168 16.7383C123.566 16.7383 123.941 16.75 124.293 16.7734C124.645 16.7969 124.984 16.832 125.312 16.8789L125.734 17.1953C125.828 17.3594 125.945 17.5117 126.086 17.6523C126.227 17.793 126.391 17.9336 126.578 18.0742C126.93 18.3555 127.27 18.707 127.598 19.1289C127.949 19.5508 128.078 20.1719 127.984 20.9922L127.809 21.3438C127.715 21.4375 127.598 21.5312 127.457 21.625L127.105 22.082H126.719C126.484 22.082 126.309 22.1055 126.191 22.1523C126.074 22.1758 125.934 22.2227 125.77 22.293C125.676 22.3398 125.57 22.3867 125.453 22.4336C125.336 22.457 125.207 22.4922 125.066 22.5391C124.809 22.5156 124.609 22.5039 124.469 22.5039C124.328 22.5039 124.164 22.5039 123.977 22.5039C123.273 22.5039 122.512 22.5508 121.691 22.6445C120.871 22.7383 120.074 22.8438 119.301 22.9609C118.738 23.0312 118.199 23.1016 117.684 23.1719C117.168 23.2188 116.699 23.2656 116.277 23.3125C116.043 23.9219 115.832 24.4609 115.645 24.9297C115.457 25.3984 115.258 25.8672 115.047 26.3359C114.836 26.8047 114.637 27.2852 114.449 27.7773C114.262 28.2461 114.086 28.7734 113.922 29.3594C113.641 29.7812 113.406 30.1914 113.219 30.5898C113.031 30.9648 112.879 31.3984 112.762 31.8906C112.41 32.2891 112.152 32.7227 111.988 33.1914C111.848 33.6602 111.719 34.0586 111.602 34.3867L111.461 34.9141C111.297 35.0781 111.191 35.207 111.145 35.3008C111.121 35.3945 111.062 35.5 110.969 35.6172C110.898 35.9219 110.805 36.2148 110.688 36.4961C110.641 36.6133 110.594 36.7422 110.547 36.8828C110.5 37 110.488 37.0938 110.512 37.1641C110.465 37.4219 110.395 37.6211 110.301 37.7617C110.301 37.9023 110.289 38.043 110.266 38.1836C110.242 38.3242 110.219 38.4648 110.195 38.6055C110.148 38.7695 110.113 38.9219 110.09 39.0625C110.066 39.1797 110.078 39.2969 110.125 39.4141C110.195 39.5078 110.266 39.6016 110.336 39.6953C110.406 39.7891 110.465 39.9062 110.512 40.0469C110.559 40.0938 110.617 40.1289 110.688 40.1523C110.758 40.1758 110.816 40.2109 110.863 40.2578C111.051 40.4219 111.227 40.5156 111.391 40.5391L111.742 40.9609C111.883 41.8047 111.754 42.4609 111.355 42.9297C110.934 43.4688 110.23 43.7383 109.246 43.7383L108.754 43.7031C108.59 43.5391 108.496 43.4336 108.473 43.3867C108.262 43.293 108.086 43.2109 107.945 43.1406C107.805 43.0938 107.676 42.9883 107.559 42.8242C107.512 42.7773 107.453 42.7539 107.383 42.7539C107.312 42.7305 107.254 42.6953 107.207 42.6484C106.973 42.5781 106.785 42.4961 106.645 42.4023L106.258 42.1914C106.281 41.957 106.293 41.793 106.293 41.6992C106.105 41.4414 105.953 41.1602 105.836 40.8555C105.742 40.5508 105.66 40.2344 105.59 39.9062C105.52 39.6484 105.449 39.4141 105.379 39.2031C105.332 38.9922 105.25 38.8047 105.133 38.6406C105.086 37 105.238 35.6289 105.59 34.5273C105.941 33.4023 106.328 32.3125 106.75 31.2578C106.984 30.6953 107.207 30.1211 107.418 29.5352C107.629 28.9492 107.816 28.3516 107.98 27.7422L108.367 27.3555C108.531 27.2148 108.637 27.1328 108.684 27.1094C108.684 26.8047 108.742 26.5117 108.859 26.2305C108.977 25.9258 109.105 25.6211 109.246 25.3164C109.34 25.1289 109.422 24.9414 109.492 24.7539C109.586 24.5664 109.645 24.4023 109.668 24.2617C109.504 24.2617 109.352 24.2734 109.211 24.2969C109.094 24.2969 108.965 24.3086 108.824 24.332C108.52 24.4023 108.227 24.4375 107.945 24.4375C107.734 24.4375 107.582 24.4258 107.488 24.4023C107.301 24.4961 107.125 24.5547 106.961 24.5781C106.797 24.5781 106.633 24.5781 106.469 24.5781H106.047H105.625C105.344 24.5781 105.121 24.6133 104.957 24.6836C104.629 24.6836 104.418 24.6836 104.324 24.6836C104.23 24.6836 104.125 24.6836 104.008 24.6836H103.586H103.164C102.977 24.6836 102.766 24.6719 102.531 24.6484C102.297 24.6016 102.051 24.5078 101.793 24.3672L101.547 24.0859C101.406 23.8281 101.277 23.6875 101.16 23.6641L100.773 23.5586V23.1719ZM129.25 43.1406C128.219 43.2812 127.281 43.2344 126.438 43C125.594 42.7656 124.832 42.4023 124.152 41.9102C123.496 41.418 122.922 40.832 122.43 40.1523C121.961 39.4727 121.574 38.7461 121.27 37.9727C121.059 36.3789 121.117 34.9375 121.445 33.6484C121.773 32.3359 122.254 31.1289 122.887 30.0273C123.52 28.9258 124.234 27.8945 125.031 26.9336C125.852 25.9727 126.637 25.0469 127.387 24.1562C127.551 24.2266 127.68 24.2266 127.773 24.1562C127.891 24.0859 127.984 23.9922 128.055 23.875C128.148 23.7578 128.242 23.6406 128.336 23.5234C128.453 23.4062 128.582 23.3242 128.723 23.2773C128.816 23.0664 128.934 22.8906 129.074 22.75C129.238 22.6094 129.402 22.4805 129.566 22.3633C129.754 22.2227 129.918 22.082 130.059 21.9414C130.223 21.8008 130.363 21.625 130.48 21.4141C130.715 21.3672 130.914 21.2852 131.078 21.168C131.266 21.0508 131.43 20.9219 131.57 20.7812C131.734 20.6406 131.898 20.5117 132.062 20.3945C132.227 20.2773 132.426 20.1836 132.66 20.1133V19.6562C133.176 19.4219 133.551 19.1641 133.785 18.8828C134.02 18.6016 134.301 18.2383 134.629 17.793C134.887 17.7695 135.086 17.7578 135.227 17.7578C135.391 17.7578 135.637 17.7344 135.965 17.6875C136.176 17.2891 136.375 16.9961 136.562 16.8086C136.75 16.6211 137.02 16.4102 137.371 16.1758C137.723 16.3633 138.098 16.4805 138.496 16.5273C138.895 16.5508 139.258 16.7266 139.586 17.0547C139.609 17.3359 139.691 17.5586 139.832 17.7227C139.973 17.8633 140.125 18.0039 140.289 18.1445C140.453 18.2617 140.617 18.3906 140.781 18.5312C140.945 18.6719 141.051 18.8711 141.098 19.1289C141.215 19.1289 141.285 19.1055 141.309 19.0586C141.355 19.0117 141.438 19 141.555 19.0234C141.602 19.2109 141.648 19.3633 141.695 19.4805C141.742 19.5977 141.789 19.7031 141.836 19.7969C141.906 19.8906 141.965 19.9961 142.012 20.1133C142.082 20.2305 142.141 20.3711 142.188 20.5352C142.07 20.8164 141.965 21.1211 141.871 21.4492C141.777 21.7539 141.59 21.9648 141.309 22.082C141.309 22.2695 141.379 22.375 141.52 22.3984C141.66 22.3984 141.742 22.4805 141.766 22.6445C141.789 22.8555 141.754 23.0312 141.66 23.1719C142.316 24.2734 142.914 25.4336 143.453 26.6523C143.992 27.8477 144.602 28.9961 145.281 30.0977C145.234 30.4258 145.246 30.7539 145.316 31.082C145.41 31.3867 145.516 31.6914 145.633 31.9961C145.773 32.3008 145.902 32.6055 146.02 32.9102C146.137 33.2148 146.219 33.5195 146.266 33.8242C146.312 34.2227 146.312 34.6562 146.266 35.125C146.219 35.5703 146.125 36.0039 145.984 36.4258C145.844 36.8477 145.656 37.2461 145.422 37.6211C145.188 37.9727 144.918 38.2422 144.613 38.4297C144.238 38.8984 143.77 39.2852 143.207 39.5898C142.645 39.8711 142.129 40.2109 141.66 40.6094C141.332 40.7969 140.98 40.9375 140.605 41.0312C140.23 41.1016 139.844 41.1836 139.445 41.2773C139.141 41.4648 138.777 41.6523 138.355 41.8398C137.934 42.0039 137.5 42.1562 137.055 42.2969C136.609 42.4375 136.164 42.5547 135.719 42.6484C135.273 42.7188 134.875 42.7305 134.523 42.6836C133.68 42.9883 132.859 43.1992 132.062 43.3164C131.266 43.4336 130.328 43.375 129.25 43.1406ZM129.707 30.3438C129.473 30.8828 129.191 31.375 128.863 31.8203C128.559 32.2422 128.254 32.6758 127.949 33.1211C127.645 33.5664 127.375 34.0469 127.141 34.5625C126.93 35.0547 126.812 35.6406 126.789 36.3203C127.258 36.7188 127.809 36.9648 128.441 37.0586C129.098 37.1289 129.766 37.1406 130.445 37.0938C131.125 37.0234 131.805 36.9297 132.484 36.8125C133.164 36.6953 133.773 36.6367 134.312 36.6367C134.312 36.4258 134.406 36.3203 134.594 36.3203C135.578 36.2266 136.492 35.957 137.336 35.5117C138.18 35.043 139.059 34.5742 139.973 34.1055C140.09 33.8242 140.242 33.5781 140.43 33.3672C140.617 33.1562 140.723 32.8516 140.746 32.4531C140.629 32.2422 140.547 32.0664 140.5 31.9258C140.477 31.7852 140.465 31.5742 140.465 31.293C139.855 30.4492 139.328 29.5352 138.883 28.5508C138.438 27.543 137.922 26.5938 137.336 25.7031C137.289 25.8203 137.195 25.9375 137.055 26.0547C136.914 26.1719 136.762 26.1484 136.598 25.9844C136.527 26.2188 136.422 26.3828 136.281 26.4766C136.141 26.5469 135.977 26.582 135.789 26.582C135.625 26.582 135.449 26.5469 135.262 26.4766C135.098 26.4062 134.945 26.3125 134.805 26.1953C133.984 26.8516 133.164 27.4844 132.344 28.0938C131.547 28.7031 130.82 29.418 130.164 30.2383C130.047 30.3086 129.977 30.332 129.953 30.3086C129.93 30.2852 129.848 30.2969 129.707 30.3438ZM149.395 25.5977C149.348 25.293 149.289 25.1055 149.219 25.0352C149.383 24.6133 149.5 24.2031 149.57 23.8047C149.664 23.3828 149.734 22.9844 149.781 22.6094C149.828 22.2812 149.875 21.9766 149.922 21.6953C149.992 21.4141 150.074 21.1445 150.168 20.8867C150.566 20.793 150.859 20.6289 151.047 20.3945C151.258 20.1367 151.422 19.9141 151.539 19.7266C151.961 19.7031 152.23 19.7617 152.348 19.9023C152.488 20.043 152.641 20.2773 152.805 20.6055C152.922 20.8633 153.086 21.1445 153.297 21.4492C153.508 21.7305 153.824 21.9531 154.246 22.1172C154.316 22.375 154.398 22.6211 154.492 22.8555C154.586 23.0898 154.691 23.3359 154.809 23.5938C155.02 24.0859 155.219 24.6016 155.406 25.1406C155.594 25.6562 155.699 26.1484 155.723 26.6172C155.441 27.1562 155.219 27.7773 155.055 28.4805C154.914 29.1836 154.82 29.8984 154.773 30.625C154.75 31.3281 154.773 32.0078 154.844 32.6641C154.914 33.3203 155.031 33.8711 155.195 34.3164L155.406 34.8789L156.18 34.8086C157.023 34.5977 157.785 34.3633 158.465 34.1055C159.145 33.8242 159.777 33.4961 160.363 33.1211C160.949 32.7461 161.512 32.3242 162.051 31.8555C162.59 31.3633 163.152 30.7891 163.738 30.1328C164.301 29.4766 164.805 28.7383 165.25 27.918C165.695 27.0742 166.059 26.207 166.34 25.3164C166.645 24.4258 166.879 23.5352 167.043 22.6445C167.207 21.7539 167.312 20.9219 167.359 20.1484C167.805 19.9375 168.051 19.5977 168.098 19.1289L167.992 18.6719C167.922 18.5547 167.887 18.4492 167.887 18.3555C167.91 18.2383 167.945 18.1328 167.992 18.0391C168.18 17.5 168.578 17.1016 169.188 16.8438C169.609 17.125 169.996 17.4297 170.348 17.7578C170.723 18.0859 171.062 18.4141 171.367 18.7422C171.414 19.375 171.508 19.9258 171.648 20.3945C171.789 20.8398 171.941 21.2734 172.105 21.6953C172.27 22.0938 172.41 22.4805 172.527 22.8555C172.668 23.2305 172.762 23.6875 172.809 24.2266C172.574 24.9297 172.398 25.5977 172.281 26.2305C172.188 26.8398 172.094 27.4844 172 28.1641L171.93 28.5508C171.508 29.2773 171.086 30.0273 170.664 30.8008C170.266 31.5508 169.938 32.207 169.68 32.7695C169.539 32.9102 169.41 33.0742 169.293 33.2617C169.199 33.4492 169.105 33.6367 169.012 33.8242C168.965 33.8945 168.895 34.0117 168.801 34.1758C168.73 34.3398 168.66 34.457 168.59 34.5273L167.746 34.2109L167.535 35.3008L166.973 35.4414L166.551 35.9336C166.012 36.8711 165.438 37.6562 164.828 38.2891C164.242 38.9219 163.574 39.4844 162.824 39.9766C162.098 40.4688 161.266 40.9375 160.328 41.3828C159.414 41.8047 158.359 42.2617 157.164 42.7539C156.695 42.6836 156.285 42.6484 155.934 42.6484C155.605 42.625 155.277 42.6016 154.949 42.5781C154.621 42.5781 154.305 42.5664 154 42.543C153.695 42.5195 153.344 42.4844 152.945 42.4375C152.852 42.2266 152.723 42.0742 152.559 41.9805C152.395 41.8867 152.242 41.8398 152.102 41.8398C151.633 41.6055 151.281 41.2773 151.047 40.8555C150.812 40.4336 150.566 39.9648 150.309 39.4492C150.191 39.168 150.062 38.8867 149.922 38.6055C149.805 38.3242 149.652 38.0547 149.465 37.7969L150.168 37.5859L149.254 36.5312C149.184 36.4609 149.102 36.3906 149.008 36.3203C148.938 36.25 148.867 36.168 148.797 36.0742V35.4062C148.703 33.4844 148.656 31.7148 148.656 30.0977C148.68 28.457 148.902 27.0156 149.324 25.7734L149.395 25.5977ZM172.879 39.9766C172.762 40 172.656 39.918 172.562 39.7305C172.469 39.5195 172.363 39.3203 172.246 39.1328H172.633C172.469 38.6172 172.422 38.1484 172.492 37.7266C172.586 37.2812 172.691 36.8594 172.809 36.4609C172.926 36.0391 173.02 35.6406 173.09 35.2656C173.184 34.8672 173.148 34.457 172.984 34.0352C173.102 34.1055 173.184 34.082 173.23 33.9648C173.301 33.8242 173.348 33.6602 173.371 33.4727C173.418 33.2617 173.43 33.0508 173.406 32.8398C173.406 32.6055 173.395 32.418 173.371 32.2773C173.676 31.5508 173.91 30.8008 174.074 30.0273C174.262 29.2539 174.426 28.4922 174.566 27.7422C174.707 26.9688 174.859 26.2305 175.023 25.5273C175.211 24.8008 175.445 24.1211 175.727 23.4883C176.055 23.4414 176.395 23.4883 176.746 23.6289C177.121 23.7461 177.367 23.8984 177.484 24.0859C178.211 23.5234 178.855 22.8438 179.418 22.0469C179.98 21.25 180.543 20.4766 181.105 19.7266C181.691 18.9531 182.348 18.2734 183.074 17.6875C183.801 17.1016 184.703 16.75 185.781 16.6328C186.344 17.0312 186.977 17.4648 187.68 17.9336C188.383 18.3789 188.957 18.9414 189.402 19.6211C189.59 19.7383 189.766 19.8672 189.93 20.0078C190.117 20.125 190.305 20.2422 190.492 20.3594V20.8867C190.82 21.1914 191.09 21.5547 191.301 21.9766C191.535 22.375 191.734 22.8086 191.898 23.2773C192.086 23.7227 192.262 24.1797 192.426 24.6484C192.59 25.1172 192.777 25.5508 192.988 25.9492C192.941 26.0898 192.918 26.2188 192.918 26.3359C192.941 26.4297 192.965 26.5352 192.988 26.6523C193.035 26.7461 193.07 26.8633 193.094 27.0039C193.117 27.1211 193.129 27.2734 193.129 27.4609C193.035 28.7031 192.625 29.7109 191.898 30.4844C191.195 31.2344 190.328 31.8555 189.297 32.3477C188.289 32.8164 187.211 33.2266 186.062 33.5781C184.914 33.9062 183.871 34.2695 182.934 34.668C182.934 34.7617 182.98 34.8086 183.074 34.8086C183.191 34.8086 183.227 34.8789 183.18 35.0195C183.883 35.4414 184.422 35.7812 184.797 36.0391C185.195 36.2969 185.559 36.5195 185.887 36.707C186.238 36.8711 186.613 37.0117 187.012 37.1289C187.434 37.2461 188.008 37.3867 188.734 37.5508C189.461 37.7148 190.023 37.8555 190.422 37.9727C190.844 38.0664 191.219 38.1484 191.547 38.2188C191.875 38.2656 192.227 38.3125 192.602 38.3594C192.977 38.4062 193.48 38.4648 194.113 38.5352C194.371 38.793 194.582 39.0977 194.746 39.4492C194.91 39.8008 195.027 40.1523 195.098 40.5039C195.168 40.8555 195.18 41.1953 195.133 41.5234C195.109 41.8281 195.016 42.0742 194.852 42.2617C194.875 42.3555 194.934 42.4023 195.027 42.4023C195.145 42.3789 195.262 42.3789 195.379 42.4023C195.215 42.5195 195.074 42.6602 194.957 42.8242C194.84 42.9883 194.723 43.1523 194.605 43.3164C194.488 43.4805 194.348 43.6328 194.184 43.7734C194.043 43.9141 193.855 43.9961 193.621 44.0195C192.777 44.3477 191.699 44.3594 190.387 44.0547C189.074 43.75 187.398 43.2109 185.359 42.4375C184.352 42.0625 183.531 41.7227 182.898 41.418C182.266 41.1133 181.715 40.8203 181.246 40.5391C180.777 40.2344 180.344 39.918 179.945 39.5898C179.547 39.2383 179.09 38.8281 178.574 38.3594C178.504 38.3828 178.457 38.4297 178.434 38.5C178.434 38.5703 178.398 38.6172 178.328 38.6406C178.211 39.5781 178.023 40.3398 177.766 40.9258C177.531 41.5117 177.18 42.1094 176.711 42.7188C176.336 42.6484 176.078 42.6836 175.938 42.8242C175.82 42.9648 175.668 43.0938 175.48 43.2109C175.246 43.2578 175.07 43.2461 174.953 43.1758C174.836 43.1289 174.73 43.0703 174.637 43C174.543 42.9297 174.438 42.8594 174.32 42.7891C174.203 42.7188 174.016 42.6953 173.758 42.7188C173.688 42.5078 173.617 42.3086 173.547 42.1211C173.477 41.9102 173.289 41.8164 172.984 41.8398C173.055 41.6289 173.078 41.4531 173.055 41.3125C173.031 41.1484 172.996 41.0078 172.949 40.8906C172.902 40.75 172.855 40.6094 172.809 40.4688C172.785 40.3281 172.809 40.1641 172.879 39.9766ZM184.621 23.9102C184.316 24.3555 183.977 24.7656 183.602 25.1406C183.227 25.4922 182.852 25.8672 182.477 26.2656C182.125 26.6406 181.809 27.0625 181.527 27.5312C181.246 27.9766 181.047 28.5156 180.93 29.1484C181.914 29.0312 182.945 28.7617 184.023 28.3398C185.102 27.8945 186.121 27.4727 187.082 27.0742C186.965 26.207 186.66 25.5156 186.168 25C185.676 24.4609 185.16 24.0977 184.621 23.9102ZM197.172 41.6992C197.078 41.6055 196.996 41.5 196.926 41.3828C196.855 41.2422 196.797 41.0664 196.75 40.8555C196.422 40.457 196.164 40 195.977 39.4844C195.789 38.9688 195.66 38.4414 195.59 37.9023C195.52 37.3398 195.508 36.7773 195.555 36.2148C195.602 35.6523 195.684 35.125 195.801 34.6328C195.871 34.3984 195.93 34.1523 195.977 33.8945C196.094 33.4492 196.211 33.0156 196.328 32.5938C196.445 32.1484 196.621 31.7852 196.855 31.5039C196.762 31.2461 196.773 30.9648 196.891 30.6602C197.008 30.3555 197.125 30.0742 197.242 29.8164C197.289 29.7461 197.324 29.6875 197.348 29.6406C197.371 29.5703 197.395 29.5117 197.418 29.4648C197.699 28.6445 197.969 27.8594 198.227 27.1094C198.508 26.3359 198.777 25.5977 199.035 24.8945C199.504 23.6055 199.949 22.3398 200.371 21.0977C200.816 19.8555 201.215 18.5312 201.566 17.125C201.754 16.9844 201.918 16.8906 202.059 16.8438C202.105 16.8203 202.164 16.7969 202.234 16.7734C202.305 16.75 202.387 16.7383 202.48 16.7383C202.973 16.9961 203.547 17.2422 204.203 17.4766C204.883 17.6875 205.457 17.793 205.926 17.793L206.523 18.3203C206.828 18.6719 207.086 19.0469 207.297 19.4453C207.531 19.8203 207.602 20.3125 207.508 20.9219C207.367 21.1328 207.25 21.2617 207.156 21.3086C207.016 21.8477 206.863 22.3281 206.699 22.75C206.535 23.1484 206.371 23.5352 206.207 23.9102C206.02 24.332 205.844 24.7539 205.68 25.1758C205.516 25.5977 205.375 26.1133 205.258 26.7227C205.117 26.8867 205.023 27.0273 204.977 27.1445C204.953 27.2617 204.918 27.3789 204.871 27.4961C204.824 27.6367 204.766 27.7891 204.695 27.9531C204.625 28.0938 204.52 28.2227 204.379 28.3398C204.285 29.0664 204.145 29.6641 203.957 30.1328C203.77 30.5781 203.582 31.0234 203.395 31.4688C203.066 32.2891 202.762 33.1094 202.48 33.9297C202.199 34.7266 202.035 35.6406 201.988 36.6719C202.27 36.6016 202.527 36.5664 202.762 36.5664C203.066 36.5664 203.359 36.6133 203.641 36.707C204.484 36.2852 205.398 36.0273 206.383 35.9336C207.391 35.8398 208.387 35.7812 209.371 35.7578C210.191 35.7578 210.953 35.7227 211.656 35.6523C211.891 35.8164 212.043 35.9102 212.113 35.9336C212.184 35.9336 212.301 35.9336 212.465 35.9336C212.535 35.9336 212.605 35.9336 212.676 35.9336C212.746 35.9336 212.84 35.9453 212.957 35.9688C213.285 36.2969 213.602 36.5312 213.906 36.6719C214.211 36.7891 214.539 36.9062 214.891 37.0234C215.195 37.1406 215.488 37.2695 215.77 37.4102C216.074 37.5273 216.367 37.6914 216.648 37.9023L216.965 39.6953C217.152 39.9531 217.234 40.1289 217.211 40.2227C217.211 40.4102 217.164 40.5742 217.07 40.7148L217.141 41.1719C216.695 41.2656 216.402 41.3711 216.262 41.4883C216.121 41.582 215.969 41.7109 215.805 41.875C215.547 41.8984 215.301 41.9102 215.066 41.9102C214.598 41.9102 214.117 41.9805 213.625 42.1211C212.922 41.8633 212.148 41.7344 211.305 41.7344C210.977 41.7344 210.637 41.7461 210.285 41.7695C209.957 41.793 209.629 41.8281 209.301 41.875C208.949 41.9219 208.598 41.9688 208.246 42.0156C207.895 42.0391 207.543 42.0508 207.191 42.0508C206.91 42.0977 206.711 42.1328 206.594 42.1562C206.477 42.1797 206.359 42.2148 206.242 42.2617C205.445 42.5195 204.578 42.7773 203.641 43.0352C202.727 43.293 201.801 43.4219 200.863 43.4219C199.48 43.4219 198.367 43.0703 197.523 42.3672C197.43 42.1562 197.359 42.0156 197.312 41.9453C197.266 41.875 197.219 41.793 197.172 41.6992ZM218.547 43.4219C218.219 43.2109 217.961 42.9414 217.773 42.6133C217.562 42.2852 217.398 41.9336 217.281 41.5586C217.141 41.1836 217.035 40.7969 216.965 40.3984C216.871 39.9766 216.777 39.5781 216.684 39.2031C216.684 38.875 216.754 38.6406 216.895 38.5C217.035 38.3359 217.188 38.1836 217.352 38.043C217.914 38.0195 218.418 37.9727 218.863 37.9023C219.309 37.832 219.742 37.7617 220.164 37.6914C220.586 37.6211 221.008 37.5625 221.43 37.5156C221.852 37.4453 222.309 37.4102 222.801 37.4102C223.152 36.6836 223.48 35.9922 223.785 35.3359C224.09 34.6562 224.383 34.0117 224.664 33.4023C224.805 32.8164 224.98 32.2773 225.191 31.7852C225.426 31.2695 225.648 30.7891 225.859 30.3438C226.07 29.875 226.258 29.418 226.422 28.9727C226.586 28.5039 226.691 28.0117 226.738 27.4961C227.02 26.6758 227.266 25.9258 227.477 25.2461C227.711 24.543 227.887 23.7109 228.004 22.75C227.113 22.8906 226.398 23.0312 225.859 23.1719C225.32 23.2891 224.934 23.4062 224.699 23.5234C224.23 23.5 223.855 23.4062 223.574 23.2422C223.316 23.0781 223.105 22.8789 222.941 22.6445C222.777 22.4102 222.637 22.1406 222.52 21.8359C222.402 21.5312 222.262 21.2148 222.098 20.8867C222.191 20.6758 222.215 20.3711 222.168 19.9727C222.121 19.5508 221.98 19.2461 221.746 19.0586C221.934 19.0117 222.074 18.8594 222.168 18.6016C222.262 18.3203 222.273 18.1094 222.203 17.9688C222.602 17.8516 223.023 17.7812 223.469 17.7578C223.914 17.7109 224.348 17.6758 224.77 17.6523C225.215 17.6055 225.637 17.5586 226.035 17.5117C226.434 17.4414 226.773 17.3125 227.055 17.125C228.273 17.0781 229.539 17.0312 230.852 16.9844C232.188 16.9375 233.418 16.8789 234.543 16.8086C234.965 16.9492 235.445 17.0195 235.984 17.0195C236.547 17.0195 237.098 17.0547 237.637 17.125C238.199 17.1953 238.691 17.3477 239.113 17.582C239.559 17.8164 239.863 18.2266 240.027 18.8125C240.379 18.8594 240.637 18.9531 240.801 19.0938C240.988 19.2344 241.105 19.4102 241.152 19.6211C241.199 19.8086 241.211 20.0312 241.188 20.2891C241.188 20.5234 241.188 20.7578 241.188 20.9922C240.812 21.2734 240.332 21.5078 239.746 21.6953C239.184 21.8594 238.562 22 237.883 22.1172C237.203 22.2109 236.488 22.2812 235.738 22.3281C235.012 22.3516 234.297 22.375 233.594 22.3984C233.477 23.1719 233.266 24.0859 232.961 25.1406C232.68 26.1719 232.387 27.1914 232.082 28.1992C231.777 29.1836 231.508 30.0742 231.273 30.8711C231.062 31.6445 230.969 32.1484 230.992 32.3828C230.758 32.9219 230.559 33.3789 230.395 33.7539C230.254 34.1289 230.113 34.4805 229.973 34.8086C229.855 35.1367 229.727 35.4648 229.586 35.793C229.469 36.0977 229.316 36.4492 229.129 36.8477H231.52C231.566 37.1055 231.672 37.2812 231.836 37.375C232 37.4688 232.176 37.5508 232.363 37.6211C232.551 37.6914 232.715 37.7852 232.855 37.9023C233.02 37.9961 233.102 38.1602 233.102 38.3945C233.547 38.5117 233.828 38.6875 233.945 38.9219C234.062 39.1562 234.086 39.4141 234.016 39.6953C233.969 39.9531 233.852 40.2227 233.664 40.5039C233.5 40.7852 233.336 41.0312 233.172 41.2422C232.961 41.1953 232.762 41.2539 232.574 41.418C232.387 41.5586 232.211 41.7227 232.047 41.9102C231.367 41.8164 230.699 41.8047 230.043 41.875C229.387 41.9453 228.777 42.0039 228.215 42.0508C228.098 42.0742 228.051 42.1445 228.074 42.2617C228.098 42.3555 228.074 42.4258 228.004 42.4727C227.277 42.2383 226.527 42.1445 225.754 42.1914C225.004 42.2383 224.23 42.3555 223.434 42.543C222.66 42.707 221.863 42.8828 221.043 43.0703C220.223 43.2812 219.391 43.3984 218.547 43.4219ZM236.969 27.1445C237.039 26.793 237.086 26.5117 237.109 26.3008C237.133 26.0664 237.051 25.8203 236.863 25.5625C236.957 25.1875 237.027 24.8945 237.074 24.6836C237.145 24.4727 237.156 24.1797 237.109 23.8047C237.32 23.1953 237.637 22.6797 238.059 22.2578C238.504 21.8359 238.984 21.4844 239.5 21.2031C240.016 20.8984 240.555 20.6523 241.117 20.4648C241.68 20.2539 242.207 20.0781 242.699 19.9375C242.699 19.8438 242.652 19.7969 242.559 19.7969C242.465 19.7969 242.441 19.7383 242.488 19.6211C243.754 19.3867 245.02 19.0469 246.285 18.6016C247.574 18.1562 248.887 17.7578 250.223 17.4062C251.559 17.0547 252.93 16.8438 254.336 16.7734C255.742 16.6797 257.219 16.8555 258.766 17.3008C258.859 17.582 258.988 17.8516 259.152 18.1094C259.316 18.3672 259.48 18.625 259.645 18.8828C259.832 19.1172 259.996 19.3516 260.137 19.5859C260.277 19.8203 260.359 20.0664 260.383 20.3242C260.664 20.582 260.887 20.8633 261.051 21.168C261.238 21.4492 261.273 21.8359 261.156 22.3281C260.898 22.5156 260.629 22.7031 260.348 22.8906C260.066 23.0781 259.773 23.2539 259.469 23.418C258.414 23.1602 257.359 23.0664 256.305 23.1367C255.25 23.207 254.301 23.2891 253.457 23.3828C253.199 23.1016 252.895 22.9727 252.543 22.9961C252.191 22.9961 251.816 23.0547 251.418 23.1719C251.043 23.2656 250.668 23.3711 250.293 23.4883C249.918 23.582 249.566 23.6055 249.238 23.5586C248.98 23.793 248.641 23.957 248.219 24.0508C247.797 24.1211 247.352 24.1797 246.883 24.2266C246.859 24.3438 246.883 24.4258 246.953 24.4727C247.023 24.5195 247.035 24.6133 246.988 24.7539C247.152 24.9648 247.375 25.1172 247.656 25.2109C247.938 25.2812 248.219 25.3516 248.5 25.4219C248.805 25.4922 249.074 25.5977 249.309 25.7383C249.543 25.8555 249.695 26.0547 249.766 26.3359C250.188 26.3594 250.551 26.4766 250.855 26.6875C251.16 26.875 251.418 27.1094 251.629 27.3906C251.84 27.6719 251.992 27.9766 252.086 28.3047C252.18 28.6094 252.215 28.8906 252.191 29.1484C252.285 29.3828 252.379 29.4766 252.473 29.4297C252.59 29.3828 252.719 29.4414 252.859 29.6055C252.953 29.957 253.164 30.332 253.492 30.7305C253.844 31.1055 254.113 31.5156 254.301 31.9609C254.348 32.6641 254.383 33.2969 254.406 33.8594C254.453 34.4219 254.359 34.9727 254.125 35.5117C253.727 36.543 253.152 37.4688 252.402 38.2891C251.652 39.1094 250.797 39.8359 249.836 40.4688C248.898 41.0781 247.902 41.6172 246.848 42.0859C245.793 42.5312 244.75 42.9062 243.719 43.2109C243.625 43.1875 243.508 43.1875 243.367 43.2109C243.25 43.2344 243.227 43.1641 243.297 43C243.086 43.1875 242.84 43.3047 242.559 43.3516C242.301 43.3984 242.008 43.4102 241.68 43.3867C241.375 43.3867 241.059 43.375 240.73 43.3516C240.426 43.3281 240.121 43.3398 239.816 43.3867C239.629 43.1992 239.453 43.0117 239.289 42.8242C239.148 42.6367 239.031 42.4141 238.938 42.1562C238.82 42.1328 238.762 42.0625 238.762 41.9453C238.785 41.8047 238.738 41.7344 238.621 41.7344C238.621 41.6406 238.633 41.5703 238.656 41.5234C238.68 41.4766 238.703 41.4297 238.727 41.3828C238.82 41.3125 238.855 41.2656 238.832 41.2422C238.832 41.1953 238.797 41.1602 238.727 41.1367C238.68 41.0898 238.621 41.043 238.551 40.9961C238.504 40.9492 238.492 40.8906 238.516 40.8203C238.633 40.6094 238.668 40.3633 238.621 40.082C238.598 39.7773 238.574 39.4727 238.551 39.168C238.527 38.8633 238.551 38.582 238.621 38.3242C238.691 38.043 238.891 37.8086 239.219 37.6211C240.18 37.7148 241.082 37.668 241.926 37.4805C242.793 37.293 243.602 37.0352 244.352 36.707C245.125 36.3789 245.852 36.0273 246.531 35.6523C247.234 35.2539 247.914 34.8906 248.57 34.5625C248.641 34.3281 248.746 34.1289 248.887 33.9648C249.051 33.8008 249.215 33.6484 249.379 33.5078C249.543 33.3438 249.695 33.1797 249.836 33.0156C249.977 32.8281 250.082 32.6055 250.152 32.3477C250.176 32.2539 250.176 32.1836 250.152 32.1367C250.129 32.0898 250.094 32.0547 250.047 32.0312C250 31.9844 249.953 31.9375 249.906 31.8906C249.859 31.8438 249.836 31.7734 249.836 31.6797C249.766 31.6562 249.695 31.6328 249.625 31.6094C249.578 31.5859 249.531 31.5742 249.484 31.5742C248.875 31.2695 248.23 31.0117 247.551 30.8008C246.871 30.5898 246.297 30.3555 245.828 30.0977C245.547 30.2852 245.266 30.332 244.984 30.2383C244.703 30.1445 244.363 30.0508 243.965 29.957C242.98 29.9102 242.043 29.8164 241.152 29.6758C240.285 29.5352 239.441 29.2891 238.621 28.9375C238.574 28.7969 238.516 28.6797 238.445 28.5859C238.375 28.4688 238.211 28.4336 237.953 28.4805C237.789 28.2461 237.613 28.0352 237.426 27.8477C237.262 27.6367 237.109 27.4023 236.969 27.1445Z" fill="#013B84"/>
</svg>
